<svg width="24" height="24" viewBox="0 0 24 24" fill="none" xmlns="http://www.w3.org/2000/svg">
<path d="M22 3H2C1.44772 3 1 3.44772 1 4C1 4.55228 1.44772 5 2 5H22C22.5523 5 23 4.55228 23 4C23 3.44772 22.5523 3 22 3Z" fill="white"/>
<path d="M22 11H2C1.44772 11 1 11.4477 1 12C1 12.5523 1.44772 13 2 13H22C22.5523 13 23 12.5523 23 12C23 11.4477 22.5523 11 22 11Z" fill="white"/>
<path d="M22 19H2C1.44772 19 1 19.4477 1 20C1 20.5523 1.44772 21 2 21H22C22.5523 21 23 20.5523 23 20C23 19.4477 22.5523 19 22 19Z" fill="white"/>
</svg>
