<svg width="24" height="24" viewBox="0 0 24 24" fill="none" xmlns="http://www.w3.org/2000/svg">
<g clip-path="url(#clip0_1_1262)">
<path fill-rule="evenodd" clip-rule="evenodd" d="M0.299988 2.69999C0.299988 2.20293 0.70293 1.79999 1.19999 1.79999H3.25583C4.3789 1.79999 5.38471 2.4952 5.7816 3.54581L6.25583 4.80106C6.27017 4.80036 6.28469 4.8 6.29921 4.79999L20.4056 4.78799C22.3297 4.78636 23.638 6.74051 22.9033 8.51891L20.5818 14.1383C20.3091 14.7986 19.7195 15.2748 19.0166 15.4026L11.2367 16.8171C9.95441 17.0503 8.68859 16.3341 8.22797 15.1149L4.09775 4.18193C3.96545 3.83173 3.63019 3.59999 3.25583 3.59999H1.19999C0.70293 3.59999 0.299988 3.19705 0.299988 2.69999ZM6.93521 6.59945L9.91181 14.4788C10.0653 14.8852 10.4873 15.1239 10.9148 15.0462L18.6946 13.6317C18.795 13.6134 18.8793 13.5453 18.9182 13.451L21.2397 7.83161C21.4846 7.23887 21.0485 6.58745 20.4071 6.58799L6.93521 6.59945Z" fill="white"/>
<path d="M8.09999 22.2C9.0941 22.2 9.89999 21.3941 9.89999 20.4C9.89999 19.4059 9.0941 18.6 8.09999 18.6C7.10588 18.6 6.29999 19.4059 6.29999 20.4C6.29999 21.3941 7.10588 22.2 8.09999 22.2Z" fill="white"/>
<path d="M18.9 22.2C19.8941 22.2 20.7 21.3941 20.7 20.4C20.7 19.4059 19.8941 18.6 18.9 18.6C17.9059 18.6 17.1 19.4059 17.1 20.4C17.1 21.3941 17.9059 22.2 18.9 22.2Z" fill="white"/>
</g>
<defs>
<clipPath id="clip0_1_1262">
<rect width="24" height="24" fill="white"/>
</clipPath>
</defs>
</svg>
