<svg width="16" height="16" viewBox="0 0 16 16" fill="none" xmlns="http://www.w3.org/2000/svg">
<path d="M6.19 0.5C5.23514 0.500137 4.29411 0.728164 3.44511 1.16513C2.5961 1.6021 1.86364 2.23538 1.30861 3.01235C0.753579 3.78933 0.391999 4.68755 0.253922 5.63237C0.115844 6.57719 0.205258 7.54132 0.514731 8.44463C0.824204 9.34794 1.3448 10.1643 2.03325 10.826C2.7217 11.4877 3.55812 11.9754 4.47301 12.2488C5.38789 12.5222 6.35481 12.5733 7.2934 12.3978C8.232 12.2224 9.11516 11.8254 9.8695 11.24L13.9097 15.2803C14.0512 15.4169 14.2407 15.4925 14.4373 15.4908C14.6339 15.489 14.8221 15.4102 14.9611 15.2711C15.1002 15.1321 15.179 14.9439 15.1808 14.7473C15.1825 14.5507 15.1069 14.3612 14.9702 14.2197L10.93 10.1795C11.6186 9.29259 12.0445 8.23027 12.1592 7.11332C12.274 5.99638 12.0731 4.86964 11.5793 3.86124C11.0854 2.85283 10.3186 2.00322 9.36587 1.40902C8.41315 0.814819 7.31282 0.499875 6.19 0.5ZM1.69 6.5C1.69 5.30653 2.1641 4.16193 3.00802 3.31802C3.85193 2.47411 4.99652 2 6.19 2C7.38347 2 8.52807 2.47411 9.37198 3.31802C10.2159 4.16193 10.69 5.30653 10.69 6.5C10.69 7.69347 10.2159 8.83807 9.37198 9.68198C8.52807 10.5259 7.38347 11 6.19 11C4.99652 11 3.85193 10.5259 3.00802 9.68198C2.1641 8.83807 1.69 7.69347 1.69 6.5Z" fill="#4E4C4C"/>
</svg>
