<svg width="240" height="41" viewBox="0 0 240 41" fill="none" xmlns="http://www.w3.org/2000/svg">
<g clip-path="url(#clip0_1_1207)">
<path d="M41.0255 20.5882C40.9803 31.6355 31.7406 40.5439 20.4225 40.4998C9.10435 40.4557 -0.0450154 31.4591 0.000166623 20.4118C0.0453487 9.36448 9.28508 0.456062 20.6032 0.500163C31.9439 0.544264 41.0707 9.54088 41.0255 20.5882Z" fill="#221F1F"/>
<path d="M27.9005 30.4007C25.7317 34.1934 23.0434 37.3025 20.0388 37.2364C18.1637 37.1922 16.379 36.5087 14.7525 35.4282C15.2721 34.5021 18.5478 29.8715 27.9005 30.4007ZM40.4837 20.5882C40.4385 31.3268 31.4473 40.0147 20.4228 39.9486C9.39841 39.9045 0.542725 31.1504 0.542725 20.4118C0.542725 13.4438 4.11211 8.43834 7.50076 5.74818C11.6575 2.46265 14.4814 4.97641 15.4754 6.89481C15.3624 6.07894 15.0236 3.74158 14.0973 2.06574C16.1305 1.38217 18.3219 1.00731 20.6036 1.02936C31.628 1.09552 40.5288 9.82753 40.4837 20.5882ZM19.4514 9.38652C22.3431 7.46812 27.3357 6.40969 29.9788 10.4229C28.3749 1.24987 21.4394 6.51995 19.4514 9.38652ZM15.4302 18.0524C16.0402 17.3909 16.7405 16.7293 17.5538 16.134C21.1683 13.4218 25.1218 12.7382 26.4095 14.6345C26.9065 15.3622 26.929 16.3765 26.545 17.4791C27.8327 15.4063 28.2393 13.4879 27.4486 12.4295C26.1158 10.6654 21.9816 11.8782 18.2089 15.1417C17.1019 16.0458 16.1757 17.0601 15.4302 18.0524ZM9.12732 19.6841C10.9572 20.0149 12.9452 17.7437 13.5552 14.5684C14.1651 11.3931 13.1937 8.57065 11.3638 8.21784C9.53395 7.88708 7.54594 10.1583 6.93599 13.3336C6.32603 16.4868 7.29744 19.3313 9.12732 19.6841ZM34.5648 15.8473C17.0568 27.2916 4.97057 21.4923 4.97057 21.4923C4.78984 25.4614 11.7705 37.6553 20.084 37.8097C28.4201 37.964 34.5648 15.8473 34.5648 15.8473ZM7.43299 13.3997C7.99777 10.489 9.71468 8.37219 11.2735 8.6809C12.8322 8.96756 13.6455 11.5695 13.1033 14.4802C12.5386 17.3909 10.8216 19.5077 9.26286 19.199C7.68149 18.9124 6.86821 16.3104 7.43299 13.3997ZM10.7539 15.8694C11.4542 16.0237 12.2223 15.1858 12.4934 14.0171C12.7645 12.8485 12.403 11.768 11.7027 11.6357C11.2283 11.5254 10.7313 11.8782 10.3698 12.4736C10.6861 12.6279 10.8442 13.0249 10.6861 13.3556C10.5506 13.6643 10.2343 13.8187 9.918 13.7525C9.78246 14.7889 10.1213 15.715 10.7539 15.8694Z" fill="#05BC52"/>
<path fill-rule="evenodd" clip-rule="evenodd" d="M84.8774 20.6102C84.8774 13.4658 90.3505 10.0921 99.0898 10.0921C107.873 10.0921 113.324 13.4879 113.324 20.6102C113.324 27.7325 107.873 31.1504 99.0898 31.1504C90.3284 31.1504 84.8774 27.7546 84.8774 20.6102ZM92.0498 20.5882C92.0498 24.3809 94.7201 25.8803 99.0898 25.8803C103.437 25.8803 106.152 24.4029 106.152 20.5882C106.152 16.7734 103.437 15.3181 99.0898 15.3181C94.7201 15.3181 92.0498 16.7734 92.0498 20.5882Z" fill="white"/>
<path d="M136.784 14.1494V10.5772H114.626V15.715H126.544L114.45 27.071V30.6212H136.85V25.4614H124.822L136.784 14.1494Z" fill="white"/>
<path d="M158.058 22.5948H146.295V25.6598H160.552V30.6212H139.697V10.5772H160.066V15.6268H146.295V18.5816H158.058V22.5948Z" fill="white"/>
<path d="M162.251 15.715H170.571V30.6212H177.413V15.715H185.733V10.5772H162.251V15.715Z" fill="white"/>
<path fill-rule="evenodd" clip-rule="evenodd" d="M230.665 10.5772H221.749L212.392 30.6212H219.851L221.462 26.6962H230.908L232.519 30.6212H240L230.665 10.5772ZM223.117 22.683L226.207 15.1858L229.275 22.683H223.117Z" fill="white"/>
<path fill-rule="evenodd" clip-rule="evenodd" d="M82.847 17.8319C82.847 13.5982 80.1325 10.5772 73.6663 10.5772H59.6746V30.6212H66.4277V24.9542H70.7753L75.6304 30.6212H84.0608L78.4111 24.1163C81.236 22.8814 82.847 20.2795 82.847 17.8319ZM66.4277 15.2961H73.0705C75.1229 15.2961 75.9394 16.3986 75.9394 17.8098C75.9394 18.758 75.3656 20.5 72.9601 20.5H66.4277V15.2961Z" fill="white"/>
<path d="M194.913 17.898L203.211 10.5772H211.995L202.35 18.758L211.664 30.6212H203.233L197.451 22.9255L194.913 25.0865V30.6212H188.16V10.5772H194.913V17.898Z" fill="white"/>
</g>
<defs>
<clipPath id="clip0_1_1207">
<rect width="240" height="40" fill="white" transform="translate(0 0.5)"/>
</clipPath>
</defs>
</svg>
